<svg width="64" height="32" viewBox="0 0 64 32" fill="none" xmlns="http://www.w3.org/2000/svg">
<path d="M15.2511 13.3787C17.6817 13.3787 19.4094 13.7362 20.6485 14.2128V12.211C19.6 11.8774 17.9438 11.52 15.2987 11.52C11.9268 11.52 10.3183 12.1991 9.52002 12.9974C8.7813 13.7362 8.40002 14.7251 8.40002 16C8.40002 17.2749 8.7813 18.2638 9.52002 19.0026C10.3303 19.8247 11.903 20.48 15.1915 20.48C17.8247 20.48 19.4451 20.1106 20.446 19.1098C20.9941 18.5617 21.28 17.7872 21.28 16.4528V15.3447H13.9404V17.0128H19.0876C19.0995 17.2034 19.0995 17.6443 18.8017 17.9422C18.2655 18.4783 16.943 18.657 15.1915 18.657C13.0467 18.657 11.9267 18.2638 11.4025 17.7396C11.0212 17.3464 10.8187 16.7864 10.8187 16C10.8187 15.2374 11.0331 14.6417 11.4502 14.2247C11.9149 13.76 13.0468 13.3787 15.2511 13.3787C13.0468 13.3787 15.2511 13.3787 15.2511 13.3787Z" fill="black"/>
<path d="M56.24 11.84H53.5084L49.1332 18.389L44.7699 11.84H41.92L47.6315 20.16H50.5286L56.24 11.84Z" fill="black"/>
<path d="M41.2 6.08H38.8303L23.36 25.84H25.7656L41.2 6.08Z" fill="#C60000"/>
<path d="M37.6916 13.0213C36.9134 12.2349 35.4158 11.52 32.1259 11.52C28.9539 11.52 27.3385 12.223 26.5485 13.0213C25.8291 13.7481 25.44 14.6536 25.44 16C25.44 17.3464 25.8291 18.24 26.5484 18.9668C27.3266 19.7532 28.895 20.48 32.1259 20.48C35.3567 20.48 36.9133 19.7651 37.6916 18.9787C38.4109 18.2519 38.8 17.3464 38.8 16C38.8 14.6417 38.4109 13.7481 37.6916 13.0213ZM32.1259 18.56C30.0181 18.56 28.929 18.1239 28.4606 17.6525C28.0976 17.2871 27.84 16.8157 27.84 15.92C27.84 15.0243 28.0625 14.541 28.4489 14.1522C28.929 13.669 30.0181 13.28 32.1259 13.28C34.2336 13.28 35.2875 13.6807 35.7794 14.1757C36.1659 14.5646 36.4 15.0243 36.4 15.92C36.4 16.8157 36.1775 17.299 35.7911 17.6878C35.2993 18.1829 34.2337 18.56 32.1259 18.56Z" fill="black"/>
</svg>
