<svg width="32" height="32" viewBox="0 0 32 32" fill="none" xmlns="http://www.w3.org/2000/svg">
<rect width="32" height="32" fill="white"/>
<g clip-path="url(#clip0)">
<path fill-rule="evenodd" clip-rule="evenodd" d="M12.9625 6.93379C13.9732 6.46519 15.1797 7.40519 16.5897 7.781C18.362 8.25286 20.2886 8.40589 20.656 10.2166C21.2511 13.1538 20.4723 14.8689 20.4723 14.8689C20.4723 14.8689 18.3204 16.6126 13.716 14.5345C9.11274 12.4566 9.49972 11.3508 9.49972 11.3508C9.49972 11.3508 10.0325 8.29263 12.9625 6.93379Z" fill="#221E1F"/>
<path fill-rule="evenodd" clip-rule="evenodd" d="M9.09604 11.5931C9.09604 11.5931 8.56883 12.0859 8.71767 12.5217C8.86674 12.958 9.96209 14.7392 13.1128 15.9227C16.2639 17.1066 19.4484 17.1659 20.3884 16.2536C20.6872 15.9636 20.4498 14.7027 20.4498 14.7027L20.6828 12.4329C21.2042 12.6369 21.4549 12.6541 22.3105 13.0243C24.5546 13.9959 27.8579 17.4569 26.7867 20.3262C25.7153 23.1959 21.2856 23.562 16.9177 21.0555C9.57255 16.8406 8.80604 13.1871 5.27813 11.715C4.56674 11.4183 6.13488 12.1873 7.65162 11.8431C9.16813 11.4987 9.09604 11.5931 9.09604 11.5931Z" fill="#221E1F"/>
<path fill-rule="evenodd" clip-rule="evenodd" d="M4.22389 11.2755C5.99807 11.9906 9.0904 15.0369 11.5641 17.4951C11.5641 17.4951 4.54226 12.1055 3.80086 11.7679C3.15319 11.4725 3.29365 10.9006 4.22389 11.2755Z" fill="#221E1F"/>
<path fill-rule="evenodd" clip-rule="evenodd" d="M8.57437 5.2113L9.00158 4.93013L8.72042 4.50293C8.68251 4.44502 8.62832 4.4092 8.55879 4.39548C8.48949 4.38176 8.42553 4.39386 8.36763 4.432C8.30902 4.47037 8.27251 4.52409 8.25786 4.59316C8.24344 4.66269 8.25507 4.72618 8.29344 4.78409L8.57437 5.2113ZM8.84995 6.55525L7.86832 5.06409C7.79135 4.94758 7.76739 4.82013 7.79576 4.68153C7.82437 4.54316 7.89669 4.43572 8.01344 4.35897L8.44042 4.07781C8.55693 4.00107 8.6846 3.97688 8.82344 4.00595C8.96204 4.03479 9.06925 4.10688 9.14576 4.22293L10.1276 5.71409L9.70228 5.99386L9.14111 5.14176L8.7139 5.42293L9.27507 6.27548L8.84995 6.55525Z" fill="#221E1F"/>
<path fill-rule="evenodd" clip-rule="evenodd" d="M11.1529 3.82607L10.9218 3.93049C10.8313 3.78421 10.7229 3.73956 10.5964 3.79654C10.5146 3.83398 10.4601 3.8777 10.4334 3.92886C10.4067 3.9798 10.4074 4.03724 10.4367 4.10119C10.4667 4.16793 10.6218 4.21073 10.9022 4.22886C11.1304 4.24468 11.2732 4.2791 11.3306 4.33096C11.3878 4.38328 11.4332 4.44631 11.4662 4.51956C11.5246 4.64886 11.529 4.77956 11.479 4.91189C11.429 5.04421 11.3406 5.1391 11.2136 5.19677L10.9806 5.30166C10.6711 5.44166 10.4467 5.357 10.3069 5.04747L10.5401 4.94212C10.6281 5.08863 10.7355 5.13328 10.8625 5.07584C10.9446 5.03863 10.999 4.99421 11.0255 4.94328C11.0522 4.89166 11.0511 4.83398 11.0222 4.77026C10.9927 4.70468 10.8376 4.66212 10.5576 4.64166C10.329 4.627 10.1857 4.59328 10.1283 4.54073C10.0708 4.48793 10.0257 4.42538 9.9927 4.35282C9.9341 4.22282 9.92991 4.09166 9.98038 3.95933C10.0306 3.82654 10.119 3.73189 10.2453 3.67491L10.4783 3.56933C10.7687 3.4384 10.9932 3.52375 11.1529 3.82607Z" fill="#221E1F"/>
<path fill-rule="evenodd" clip-rule="evenodd" d="M12.957 3.26147L12.7135 3.33124C12.6449 3.17356 12.5439 3.11379 12.4109 3.15217C12.3246 3.17705 12.2642 3.21286 12.2302 3.25938C12.1963 3.30612 12.1893 3.3631 12.2086 3.43031C12.2288 3.50054 12.376 3.56519 12.6509 3.62403C12.8746 3.67286 13.0107 3.72682 13.06 3.78682C13.1093 3.84705 13.1449 3.91589 13.167 3.9931C13.2063 4.12938 13.1914 4.25961 13.123 4.38333C13.0546 4.50682 12.953 4.58798 12.8193 4.62635L12.5735 4.69682C12.2472 4.79077 12.0372 4.67426 11.9437 4.34798L12.1895 4.27752C12.2553 4.43496 12.3556 4.49449 12.4893 4.45635C12.576 4.43124 12.636 4.39542 12.6697 4.34821C12.7037 4.30124 12.7107 4.24426 12.6914 4.17705C12.6716 4.10798 12.5246 4.04333 12.2504 3.98286C12.026 3.93519 11.8895 3.88147 11.8402 3.82077C11.7907 3.76054 11.7551 3.69193 11.7332 3.61519C11.6937 3.47845 11.7088 3.34775 11.7774 3.22379C11.8463 3.10031 11.9474 3.01914 12.0807 2.98077L12.3265 2.91031C12.6328 2.82217 12.8428 2.93938 12.957 3.26147Z" fill="#221E1F"/>
<path fill-rule="evenodd" clip-rule="evenodd" d="M14.0802 3.06061L14.1758 3.81945C14.1844 3.88759 14.2165 3.9434 14.2723 3.98689C14.3279 4.03061 14.3907 4.04782 14.4614 4.03898C14.5314 4.02991 14.5884 3.99759 14.6314 3.94177C14.6747 3.88573 14.6919 3.82363 14.6835 3.75549L14.5879 2.99689C14.5791 2.92712 14.5463 2.87084 14.4898 2.82736C14.4333 2.78363 14.3707 2.76642 14.3021 2.77503C14.2326 2.78387 14.1758 2.81596 14.1326 2.87247C14.0888 2.92852 14.0714 2.99131 14.0802 3.06061ZM14.0163 2.55317L14.5237 2.48922C14.6621 2.47201 14.7872 2.50689 14.8991 2.59456C15.0105 2.68201 15.0753 2.79503 15.0928 2.93317L15.1884 3.69177C15.2056 3.82875 15.1712 3.9534 15.0842 4.06573C14.9977 4.17805 14.8853 4.24317 14.747 4.26061L14.2398 4.3248C14.1012 4.34177 13.9763 4.30735 13.8644 4.22084C13.7528 4.13387 13.6881 4.02154 13.6707 3.88317L13.5753 3.12433C13.5574 2.98456 13.5921 2.85852 13.6793 2.74712C13.7663 2.63503 13.8786 2.57061 14.0163 2.55317Z" fill="#221E1F"/>
<path fill-rule="evenodd" clip-rule="evenodd" d="M16.9997 2.95328L16.7467 2.94537C16.7323 2.77421 16.6497 2.68677 16.4992 2.68188C16.4292 2.67956 16.3681 2.70281 16.3164 2.75142C16.2648 2.80002 16.2378 2.85932 16.2355 2.92932L16.2113 3.69374C16.2092 3.76211 16.2323 3.82235 16.2804 3.87398C16.3285 3.9256 16.3878 3.95258 16.459 3.95514C16.6092 3.95979 16.6974 3.87816 16.7227 3.70979L16.9755 3.71793C16.9444 4.05653 16.7695 4.22049 16.4511 4.21072L16.1955 4.20258C16.056 4.19839 15.9378 4.14444 15.8411 4.04142C15.7446 3.93816 15.6981 3.817 15.7025 3.6777L15.7265 2.91304C15.7311 2.77258 15.7848 2.65328 15.8883 2.55677C15.9923 2.46002 16.113 2.41398 16.2513 2.41793L16.5074 2.42607C16.8271 2.43607 16.9916 2.61188 16.9997 2.95328Z" fill="#221E1F"/>
<path fill-rule="evenodd" clip-rule="evenodd" d="M17.706 2.27206L17.7432 2.01927L18.2467 2.09323L18.2095 2.34648L17.706 2.27206ZM17.4079 4.28881L17.6688 2.52276L18.1725 2.59695L17.9118 4.36323L17.4079 4.28881Z" fill="#221E1F"/>
<path fill-rule="evenodd" clip-rule="evenodd" d="M19.5504 3.96426L19.3038 3.89519C19.2364 3.87659 19.1717 3.88403 19.1097 3.91868C19.0485 3.9531 19.0083 4.0038 18.9897 4.07031L18.9887 4.07287C18.9704 4.13891 18.9783 4.2024 19.0127 4.26449C19.0473 4.32612 19.0987 4.36636 19.1669 4.38566C19.2355 4.40473 19.3001 4.39659 19.3615 4.3617C19.4231 4.32659 19.4629 4.27612 19.4815 4.21054L19.5504 3.96426ZM19.619 3.71775L19.6873 3.4738C19.7059 3.40612 19.6983 3.3417 19.6627 3.27961C19.6273 3.21775 19.5762 3.17729 19.5097 3.15868L19.2636 3.08984C19.1185 3.04915 19.0141 3.10868 18.9508 3.26798L18.7043 3.19915C18.8336 2.88124 19.0429 2.76263 19.3324 2.8438L19.8248 2.98101C19.9592 3.01868 20.0608 3.09915 20.1299 3.22333C20.1992 3.34729 20.215 3.47659 20.1773 3.61054L19.8348 4.83775L19.3445 4.70054L19.4129 4.45426C19.3483 4.61333 19.2431 4.6724 19.0983 4.63194L18.8517 4.56287C18.7176 4.52566 18.6157 4.44496 18.5464 4.32194C18.4769 4.19891 18.4608 4.07008 18.4985 3.93566L18.499 3.93333C18.5369 3.79938 18.6173 3.69752 18.7408 3.62845C18.8643 3.55868 18.9931 3.54263 19.1264 3.58008L19.619 3.71775Z" fill="#221E1F"/>
<path fill-rule="evenodd" clip-rule="evenodd" d="M21.4011 3.0087L21.8664 3.21498L21.6594 3.68033L21.8936 3.78428L21.7897 4.018L21.5559 3.91428L21.142 4.84707C21.109 4.92195 21.108 4.99033 21.1401 5.05219C21.172 5.11381 21.2092 5.15381 21.2513 5.17242L21.2729 5.18219L21.1692 5.41614L20.9355 5.31242C20.8073 5.25544 20.7178 5.16102 20.6678 5.0294C20.6173 4.89777 20.6201 4.768 20.6769 4.64056L21.0908 3.70777L20.8569 3.60428L20.9606 3.37033L21.1943 3.47405L21.4011 3.0087Z" fill="#221E1F"/>
<path fill-rule="evenodd" clip-rule="evenodd" d="M22.5884 3.86818L22.7161 3.64632L23.1572 3.8998L23.0298 4.1219L22.5884 3.86818ZM21.5733 5.63585L22.4626 4.08771L22.9035 4.34143L22.0144 5.88934L21.5733 5.63585Z" fill="#221E1F"/>
<path fill-rule="evenodd" clip-rule="evenodd" d="M23.5836 5.40231L23.1233 6.01278C23.0819 6.06789 23.0661 6.12999 23.0757 6.19999C23.0852 6.26999 23.1182 6.3265 23.1752 6.36929C23.2317 6.41208 23.2952 6.42812 23.3652 6.41812C23.4347 6.40789 23.4905 6.3758 23.5317 6.32092L23.9922 5.71022C24.0343 5.65417 24.0503 5.59092 24.0401 5.51999C24.0299 5.44975 23.9971 5.39371 23.9417 5.35161C23.8859 5.30975 23.8226 5.29371 23.7524 5.30324C23.6819 5.31324 23.6259 5.34626 23.5836 5.40231ZM23.8915 4.99371L24.2996 5.30161C24.4112 5.38533 24.4766 5.49789 24.4957 5.63859C24.5147 5.77929 24.4824 5.9051 24.3987 6.0165L23.9382 6.62719C23.8554 6.73743 23.7433 6.80254 23.6029 6.82278C23.4624 6.84324 23.3366 6.81138 23.2254 6.72719L22.8171 6.41952C22.7057 6.33557 22.6398 6.22347 22.6203 6.08371C22.6005 5.94347 22.6329 5.81813 22.7168 5.7065L23.1773 5.09603C23.2619 4.98324 23.3747 4.91696 23.5147 4.89766C23.6554 4.87859 23.7808 4.91022 23.8915 4.99371Z" fill="#221E1F"/>
<path fill-rule="evenodd" clip-rule="evenodd" d="M23.9492 7.31694L25.2443 6.08833L25.5945 6.45764L25.4092 6.63345C25.4787 6.58205 25.5434 6.55694 25.6034 6.5588C25.6634 6.56066 25.7192 6.58857 25.7706 6.64298L25.9466 6.82857C26.0427 6.92996 26.0885 7.05136 26.0843 7.19322C26.0799 7.33531 26.0273 7.45391 25.9262 7.54996L25.0017 8.42647L24.6517 8.05763L25.5757 7.18066C25.6266 7.13252 25.6527 7.07275 25.6545 7.00159C25.6559 6.92996 25.6329 6.8695 25.5852 6.8188C25.5369 6.76833 25.4771 6.74182 25.4066 6.73996C25.3357 6.7381 25.2743 6.76112 25.2236 6.80926L24.2997 7.68647L23.9492 7.31694Z" fill="#221E1F"/>
<path fill-rule="evenodd" clip-rule="evenodd" d="M27.0469 9.13686L26.3872 9.52384C26.3279 9.55849 26.2895 9.60988 26.2714 9.67826C26.2532 9.74686 26.2621 9.81151 26.2979 9.87291C26.3337 9.93384 26.3858 9.97314 26.4544 9.99081C26.5227 10.0083 26.5867 9.99965 26.6458 9.96523L27.3053 9.57802C27.3658 9.54267 27.4051 9.49035 27.4227 9.42128C27.4404 9.35244 27.4318 9.28779 27.3967 9.22826C27.3616 9.16756 27.3093 9.12849 27.2407 9.11035C27.1718 9.09267 27.1074 9.10151 27.0469 9.13686ZM27.4879 8.87802L27.7469 9.31942C27.8172 9.43942 27.8344 9.56849 27.7979 9.70546C27.7616 9.84291 27.6834 9.94639 27.563 10.0171L26.9032 10.4043C26.7844 10.4738 26.6562 10.4913 26.5188 10.4559C26.3814 10.4208 26.2772 10.3427 26.2069 10.2227L25.9479 9.78128C25.8776 9.66105 25.86 9.53267 25.8955 9.3957C25.9311 9.25895 26.0093 9.15547 26.1297 9.08477L26.7895 8.69756C26.9109 8.62663 27.0404 8.60872 27.1774 8.645C27.3141 8.68058 27.4179 8.75872 27.4879 8.87802Z" fill="#221E1F"/>
<path fill-rule="evenodd" clip-rule="evenodd" d="M26.7372 11.3022L28.1558 10.7294L28.06 10.4925L28.2974 10.3966L28.3928 10.6338L28.4139 10.6252C28.5372 10.5755 28.6611 10.5771 28.7858 10.6299C28.9102 10.6827 28.9972 10.7708 29.0472 10.8941L29.246 11.3873L29.009 11.4831L28.9049 11.2259C28.8814 11.1666 28.8397 11.1248 28.78 11.1001C28.7207 11.075 28.6621 11.0741 28.6044 11.0976L28.5835 11.1059L28.6793 11.3429L28.4418 11.4385L28.3465 11.2015L26.9276 11.7741L26.7372 11.3022Z" fill="#221E1F"/>
<path fill-rule="evenodd" clip-rule="evenodd" d="M1.86932 16.7907L4.14886 16.5317L4.20653 17.0372L3.19235 17.1526L3.25002 17.661L4.26421 17.5456L4.32188 18.0514L2.04211 18.3107L1.98467 17.8049L2.99839 17.6893L2.94049 17.1814L1.92653 17.2965L1.86932 16.7907Z" fill="#221E1F"/>
<path fill-rule="evenodd" clip-rule="evenodd" d="M3.19489 19.7905L3.12535 19.5442C3.10628 19.4767 3.06582 19.4258 3.00442 19.3907C2.94279 19.3563 2.87861 19.3484 2.8121 19.3672L2.80977 19.3679C2.74396 19.3865 2.69326 19.4265 2.65861 19.4881C2.62372 19.5498 2.61605 19.6144 2.63512 19.6828C2.65465 19.7509 2.69535 19.8021 2.75698 19.8365C2.81884 19.8709 2.88279 19.8788 2.94837 19.86L3.19489 19.7905ZM3.44117 19.7207L3.68465 19.6521C3.7521 19.6328 3.80349 19.5921 3.83791 19.5298C3.87233 19.4674 3.88023 19.4033 3.8614 19.3363L3.79163 19.0902C3.75093 18.9453 3.64582 18.8872 3.47651 18.916L3.40721 18.67C3.74605 18.6146 3.95605 18.7316 4.03791 19.0207L4.17698 19.513C4.21489 19.6472 4.19884 19.776 4.12907 19.8995C4.05954 20.0233 3.95744 20.1039 3.82303 20.1421L2.59721 20.4884L2.45884 19.9984L2.70512 19.9288C2.53558 19.956 2.43047 19.8972 2.38954 19.7523L2.31977 19.5063C2.28186 19.3719 2.29744 19.2433 2.36651 19.1198C2.43558 18.9965 2.53698 18.9158 2.67117 18.8779L2.67349 18.8772C2.80768 18.8393 2.93651 18.8553 3.06 18.9244C3.18349 18.9937 3.26419 19.0953 3.30186 19.2286L3.44117 19.7207Z" fill="#221E1F"/>
<path fill-rule="evenodd" clip-rule="evenodd" d="M4.53582 21.7793L4.43117 21.5486C4.57815 21.46 4.62024 21.3469 4.55791 21.21C4.52884 21.146 4.48117 21.1018 4.41466 21.0767C4.34838 21.0521 4.28326 21.0541 4.21931 21.083L3.52326 21.3997C3.46047 21.4279 3.41722 21.4753 3.39187 21.5416C3.36698 21.6076 3.36884 21.6725 3.39838 21.7369C3.46047 21.8744 3.5728 21.9169 3.73489 21.8651L3.83977 22.0958C3.5221 22.2176 3.29768 22.133 3.16559 21.843L3.05931 21.6104C3.00163 21.4832 2.99815 21.3539 3.04768 21.2214C3.09698 21.0888 3.18536 20.9939 3.31233 20.9362L4.00838 20.6195C4.13675 20.5614 4.26745 20.5572 4.40001 20.6072C4.53257 20.6572 4.62745 20.7453 4.68489 20.8714L4.79071 21.1041C4.9235 21.3958 4.83815 21.6207 4.53582 21.7793Z" fill="#221E1F"/>
<path fill-rule="evenodd" clip-rule="evenodd" d="M3.70651 22.9277L5.6293 21.6761L5.90698 22.1029L4.94558 22.7289L5.89744 23.0215L6.17675 23.4503L4.84465 23.0426L4.68023 24.4243L4.40116 23.9954L4.51907 23.0061L3.98395 23.3545L3.70651 22.9277Z" fill="#221E1F"/>
<path fill-rule="evenodd" clip-rule="evenodd" d="M6.07695 24.4689L6.42068 24.8477L6.60812 24.6773C6.66021 24.6303 6.68765 24.571 6.69091 24.5C6.6944 24.4286 6.67254 24.3675 6.62602 24.3161C6.57881 24.264 6.51975 24.2366 6.44858 24.2331C6.37788 24.2298 6.31649 24.2514 6.26463 24.2986L6.07695 24.4689ZM6.57347 25.3963L5.88765 24.6405L5.69835 24.8126C5.64719 24.8586 5.62044 24.917 5.61649 24.9873C5.61277 25.058 5.63486 25.1198 5.68254 25.1721L5.8544 25.3614C5.96765 25.4868 6.08695 25.4924 6.21207 25.3789L6.3837 25.5684C6.10602 25.7668 5.86626 25.7552 5.66509 25.5333L5.32114 25.1547C5.22742 25.0512 5.18393 24.9291 5.19091 24.7879C5.19765 24.6466 5.25277 24.5291 5.35626 24.4354L5.9223 23.9214C6.02695 23.8268 6.14975 23.7831 6.29137 23.79C6.43277 23.7973 6.55021 23.8524 6.6437 23.9549L6.98719 24.3335C7.08067 24.4368 7.12393 24.5598 7.11672 24.701C7.10905 24.8428 7.0537 24.9605 6.95044 25.0545L6.57347 25.3963Z" fill="#221E1F"/>
<path fill-rule="evenodd" clip-rule="evenodd" d="M6.9067 26.6982L6.51508 26.3726L7.65694 25L8.04833 25.3259L7.72136 25.7187C7.84577 25.6005 7.96787 25.5359 8.08787 25.5247C8.20787 25.5138 8.32577 25.5566 8.44182 25.6528L8.63624 25.8147L8.30926 26.2082L7.9181 25.8821C7.86391 25.8377 7.80182 25.8182 7.73159 25.8242C7.66112 25.8307 7.60368 25.8603 7.55926 25.9138L6.9067 26.6982Z" fill="#221E1F"/>
<path fill-rule="evenodd" clip-rule="evenodd" d="M9.59999 27.0325L9.38604 26.8974C9.45813 26.7411 9.43534 26.6262 9.31813 26.5525C9.24185 26.5043 9.17511 26.4832 9.1179 26.489C9.06092 26.4946 9.01325 26.5269 8.97581 26.5864C8.9365 26.6488 8.98674 26.8016 9.12581 27.0457C9.23813 27.2446 9.2886 27.3827 9.2765 27.4592C9.26464 27.536 9.23674 27.6085 9.19418 27.6764C9.1186 27.7964 9.01162 27.8716 8.87371 27.9032C8.73581 27.9343 8.60767 27.9127 8.49023 27.8383L8.27348 27.7018C7.9865 27.5211 7.93348 27.2869 8.11464 26.9995L8.33092 27.1362C8.2572 27.2902 8.2793 27.4046 8.39743 27.479C8.47348 27.5271 8.54022 27.5478 8.5979 27.542C8.65534 27.536 8.70302 27.5032 8.74046 27.4439C8.7786 27.3832 8.72906 27.2304 8.59139 26.9855C8.47743 26.7864 8.42674 26.6488 8.43906 26.5716C8.45139 26.4946 8.47883 26.4223 8.52139 26.355C8.59743 26.2343 8.70441 26.1585 8.84302 26.1271C8.98116 26.0964 9.10883 26.1178 9.22604 26.192L9.44232 26.3283C9.71185 26.4983 9.76464 26.7329 9.59999 27.0325Z" fill="#221E1F"/>
<path fill-rule="evenodd" clip-rule="evenodd" d="M11.0274 26.8758L11.1251 26.6393L11.5956 26.8339L11.4981 27.0702L11.0274 26.8758ZM10.2495 28.7604L10.9305 27.1099L11.4012 27.3044L10.72 28.9544L10.2495 28.7604Z" fill="#221E1F"/>
<path fill-rule="evenodd" clip-rule="evenodd" d="M11.3414 29.2004L11.8179 27.48L12.3086 27.6158L12.2403 27.8621C12.2733 27.7821 12.3158 27.7274 12.3682 27.6979C12.4205 27.6686 12.4828 27.6642 12.5551 27.6842L12.8017 27.7523C12.9358 27.7895 13.0379 27.87 13.1072 27.9939C13.1765 28.1179 13.1926 28.2465 13.1554 28.3811L12.8154 29.6088L12.3249 29.473L12.6651 28.2453C12.6838 28.1779 12.6754 28.1128 12.64 28.0514C12.6047 27.9891 12.5533 27.9488 12.4868 27.9304C12.4191 27.9118 12.3545 27.9197 12.2928 27.9549C12.2312 27.9897 12.191 28.0411 12.1719 28.1088L11.8317 29.3363L11.3414 29.2004Z" fill="#221E1F"/>
<path fill-rule="evenodd" clip-rule="evenodd" d="M14.559 29.8595L14.7076 27.826L14.1997 27.7891L14.2187 27.5339L15.7441 27.6456L15.7255 27.9004L15.2178 27.8635L15.069 29.8967L14.559 29.8595Z" fill="#221E1F"/>
<path fill-rule="evenodd" clip-rule="evenodd" d="M16.9797 29.1033L16.7241 29.1205C16.6546 29.1251 16.5962 29.1542 16.5495 29.2072C16.5025 29.2602 16.4813 29.3212 16.4865 29.3905L16.4867 29.3928C16.4911 29.4612 16.5199 29.5186 16.573 29.5653C16.626 29.6121 16.6879 29.633 16.759 29.6284C16.8295 29.6235 16.8876 29.5942 16.9346 29.5412C16.9806 29.4874 17.0013 29.4267 16.9967 29.3586L16.9797 29.1033ZM16.9623 28.8479L16.9453 28.5951C16.9406 28.5253 16.9113 28.467 16.8574 28.4202C16.8037 28.3735 16.7418 28.3526 16.6727 28.3574L16.4176 28.3747C16.2674 28.3847 16.189 28.4758 16.182 28.647L15.9272 28.664C15.943 28.3214 16.1006 28.1398 16.4002 28.1195L16.9109 28.0851C17.0497 28.0756 17.1725 28.1179 17.279 28.2116C17.3858 28.3053 17.4434 28.4216 17.453 28.5609L17.539 29.8321L17.0313 29.866L17.0139 29.6114C17.0053 29.7828 16.9262 29.8735 16.7758 29.8835L16.5206 29.9009C16.3818 29.9102 16.2588 29.8684 16.1525 29.7753C16.046 29.6826 15.9879 29.5663 15.9786 29.4272L15.9783 29.4247C15.9688 29.2856 16.0109 29.163 16.1044 29.0565C16.1981 28.95 16.3139 28.8919 16.4516 28.8826L16.9623 28.8479Z" fill="#221E1F"/>
<path fill-rule="evenodd" clip-rule="evenodd" d="M18.1913 29.7166L17.8562 27.9632L18.356 27.8673L18.6913 29.6211L18.1913 29.7166ZM17.8085 27.7141L17.7606 27.4629L18.2606 27.3673L18.3088 27.6187L17.8085 27.7141Z" fill="#221E1F"/>
<path fill-rule="evenodd" clip-rule="evenodd" d="M18.7984 27.8305L19.2765 27.6552L19.8024 29.0915L20.0426 29.0036C20.1091 28.9789 20.1575 28.935 20.1868 28.8705C20.2163 28.8063 20.2191 28.7422 20.1958 28.678L19.7565 27.4794L20.2347 27.3043L20.7607 28.7403L21.001 28.6524C21.0658 28.6289 21.1135 28.5845 21.1428 28.5205C21.1721 28.4559 21.1749 28.3917 21.1519 28.3275L20.7126 27.1289L21.1928 26.9533L21.5072 27.8115C21.5891 28.0343 21.5791 28.2556 21.4777 28.4759C21.3763 28.6961 21.2135 28.847 20.9893 28.9294L20.371 29.1556L20.3431 29.0794C20.2693 29.164 20.1654 29.2308 20.0312 29.2803L19.4126 29.507L18.7984 27.8305Z" fill="#221E1F"/>
<path fill-rule="evenodd" clip-rule="evenodd" d="M22.9456 27.0604L22.7279 27.1946C22.6686 27.2314 22.6305 27.2839 22.6138 27.3527C22.597 27.4216 22.6068 27.4853 22.6431 27.5444L22.6444 27.5465C22.68 27.6048 22.7328 27.6423 22.8017 27.6588C22.87 27.6758 22.9349 27.6653 22.9951 27.6279C23.0554 27.5909 23.0938 27.5379 23.1096 27.4688C23.1258 27.4002 23.1156 27.3365 23.0803 27.2783L22.9456 27.0604ZM22.8117 26.8427L22.6789 26.6269C22.6421 26.5674 22.5889 26.5293 22.5198 26.513C22.4503 26.4967 22.3863 26.5072 22.3272 26.5434L22.1093 26.6776C21.9812 26.7562 21.9537 26.8732 22.0277 27.0281L21.81 27.1621C21.6642 26.8514 21.7196 26.6172 21.9751 26.4597L22.4105 26.1918C22.5296 26.1183 22.6579 26.0986 22.7958 26.1321C22.9338 26.1653 23.0391 26.2414 23.1124 26.36L23.7805 27.4444L23.347 27.7118L23.2126 27.4939C23.2854 27.6495 23.2575 27.7669 23.1293 27.8458L22.9114 27.9797C22.7928 28.053 22.6647 28.0732 22.5272 28.0407C22.3896 28.0076 22.2842 27.932 22.2112 27.8132L22.2098 27.8114C22.1365 27.6925 22.1165 27.5644 22.1496 27.4265C22.1828 27.2888 22.2582 27.1834 22.3763 27.1109L22.8117 26.8427Z" fill="#221E1F"/>
<path fill-rule="evenodd" clip-rule="evenodd" d="M24.3541 27.0238L23.1883 25.672L23.5741 25.3394L23.7411 25.5331C23.6927 25.4611 23.6709 25.3955 23.6755 25.3355C23.6804 25.2757 23.7109 25.2213 23.7679 25.1724L23.9616 25.0055C24.0672 24.9145 24.1904 24.8745 24.3323 24.8855C24.4739 24.8966 24.5902 24.955 24.6809 25.0604L25.5125 26.0252L25.1272 26.3576L24.2953 25.3927C24.2497 25.3399 24.1916 25.3108 24.12 25.3057C24.049 25.3006 23.9872 25.3208 23.9348 25.3662C23.8816 25.4118 23.8525 25.4701 23.8472 25.5411C23.842 25.6118 23.8623 25.6738 23.9081 25.7269L24.74 26.6915L24.3541 27.0238Z" fill="#221E1F"/>
<path d="M6.26682 11.1143C7.89007 7.87149 11.1054 5.5194 14.9826 5.17149C20.9352 4.63753 26.1936 9.03009 26.7275 14.9827C26.7682 15.4375 26.7803 15.8885 26.7652 16.3334" stroke="#221E1F" stroke-width="0.566" stroke-linecap="round"/>
<path d="M23.9862 23.196C22.2234 25.1522 19.7462 26.4739 16.9164 26.7278C10.9636 27.2615 5.70551 22.869 5.17155 16.9164C5.0783 15.8787 5.13504 14.8622 5.32341 13.888" stroke="#221E1F" stroke-width="0.566" stroke-linecap="round"/>
<path fill-rule="evenodd" clip-rule="evenodd" d="M30.7729 14.6198C31.5071 22.8065 25.4659 30.0384 17.2794 30.7728C9.09263 31.5072 1.86054 25.4658 1.12635 17.2793C0.391702 9.09258 6.4331 1.86072 14.6198 1.1263C22.8064 0.391885 30.0384 6.43305 30.7729 14.6198Z" stroke="#221E1F" stroke-width="0.566"/>
</g>
<defs>
<clipPath id="clip0">
<rect x="1" y="1" width="30" height="30" fill="white"/>
</clipPath>
</defs>
</svg>
