<?xml version="1.0" encoding="utf-8"?>
<!-- Generator: Adobe Illustrator 21.1.0, SVG Export Plug-In . SVG Version: 6.00 Build 0)  -->
<svg version="1.1" id="圖層_1" xmlns="http://www.w3.org/2000/svg" xmlns:xlink="http://www.w3.org/1999/xlink" x="0px" y="0px"
	 viewBox="0 0 566.9 566.9" style="enable-background:new 0 0 566.9 566.9;" xml:space="preserve">
<style type="text/css">
	.st0{fill:#EA5037;}
	.st1{opacity:0.5;}
	.st2{fill:#323333;}
	.st3{fill:#FFFFFF;}
</style>
<g>
	<rect x="0.1" y="0.6" class="st0" width="566.9" height="566.9"/>
	<g class="st1">
		<path class="st2" d="M433.5,280c0,9.5-8.6,19.9-24.4,20.4H157.5c-15.4-0.5-24-10.9-24-20.4c0-1.8,0.9-2.7,2.3-3.2
			c0.9-0.5,2.3,0.5,2.7,1.4c1.4,3.2,3.6,6.8,10.4,6.8l49.8-23.5h170.1c0,0,37.1,22.6,49.3,23.5c6.8-0.5,8.6-3.6,10-6.8
			c0.5-0.9,1.8-1.8,3.2-1.4C432.6,277.2,433.5,278.1,433.5,280z M148,377.2h270.6v19.5H148V377.2z M148,405.7h270.6V465h-33.9v-32.6
			c0-5.9-6.3-11.3-14.5-11.3c-8.1,0-14.5,5.4-14.5,11.3V465h-19.5v-32.6c0-5.9-6.3-11.3-14.5-11.3s-14.5,5.4-14.5,11.3V465h-33.5
			v-32.6c0-5.9-6.3-11.3-14.5-11.3c-8.1,0-14.5,5.4-14.5,11.3V465h-24.4v-32.6c0-5.9-6.3-11.3-14.5-11.3c-8.1,0-14.5,5.4-14.5,11.3
			V465H148V405.7z M172.9,309.4v58.8h-11.3v-58.8H172.9z M167.5,182.7c0-1.4,0.5-2.3,1.8-2.7c0.5-0.5,1.8-0.5,2.7,0.5l0.9,0.9
			c2.3,2.7,4.5,5.4,9.5,5.4c12.7-0.5,40.3-15.8,48-19.5v-5.9c0-1.4,0.5-1.8,1.8-1.8c3.2,0,5.9-0.9,8.6-2.7
			c-5.4-5.4-5.9-12.2-5.9-18.1c0-2.3,2.3-5,5-5c3.2,0,5,2.7,5,5c0,7.7,8.1,8.6,10.9,8.6c13.1-11.8,20.8-26.2,22.6-29.9v-12.7
			c0-1.4,0.9-1.8,1.8-1.8h6.3c1.4,0,1.8,0.5,1.8,1.8v12.7c2.3,3.6,10.4,18.1,22.6,29.9c3.6,0,10.9-0.5,10.9-8.6c0-2.3,1.8-5,5-5
			c2.7,0,5,2.7,5,5c0,5.9-0.9,12.7-5.4,18.1c3.2,1.8,4.5,2.7,8.6,2.7c1.4,0,1.8,0.9,1.8,1.8v5.9c7.7,3.6,34.8,19,47.5,19.5
			c5,0,7.2-2.7,9.5-5.4l1.4-0.9c0.5-0.9,1.4-0.9,2.7-0.5c0.9,0.5,1.8,1.4,1.8,2.7c0,6.3-5.9,19.9-24,19.9H191.5
			C173.8,202.6,167.5,189,167.5,182.7z M189.7,309.4h188.2v58.8H189.7V309.4z M296.9,252.4v-29.4h-27.1v29.4h-62l-0.9-40.7h152.9
			l-0.5,40.7H296.9z M261.6,353.3c7.2,6.3,14.9,3.2,21.7,0.5c7.7-3.2,14.9-6.3,22.2,0V332c-7.2-5.9-14.5-2.7-22.2,0
			c-6.8,3.6-14.5,5.9-21.7,0V353.3z M262.5,161h42.1c-5.9-5.4-15.4-18.1-21.3-26.7C277.4,142.9,267.9,156,262.5,161z M405,309.4
			v58.8h-11.3v-58.8H405z"/>
	</g>
	<g>
		<path class="st3" d="M437.6,314.4h-53c-4,0-7.3,3.3-7.3,7.3v92.8v0c0,4,3.3,7.3,7.3,7.3h53c4,0,7.3-3.3,7.3-7.3v0v-92.8
			C445,317.6,441.7,314.4,437.6,314.4z M430.3,329v78.1h-38.4V329H430.3z"/>
		<path class="st3" d="M352.8,314.4h-53c-4,0-7.3,3.3-7.3,7.3s3.3,7.3,7.3,7.3h45.7v35.9h-45.7c-0.1,0-0.1,0-0.2,0
			c-0.1,0-0.1,0-0.2,0h0c-4,0-7.3,3.3-7.3,7.3v42.3c0,4,3.3,7.3,7.3,7.3h0c0.1,0,0.1,0,0.2,0c0.1,0,0.1,0,0.2,0h53
			c4,0,7.3-3.3,7.3-7.3v0c0-4-3.3-7.3-7.3-7.3h-46.2v-27.6h46.2c4,0,7.3-3.3,7.3-7.3v-50.5C360.1,317.6,356.9,314.4,352.8,314.4z"/>
		<path class="st3" d="M267.5,314.4c-4,0-7.3,3.3-7.3,7.3v71.6h-11.9v-34.9c0-4-3.3-7.3-7.3-7.3s-7.3,3.3-7.3,7.3v34.9h-11.9v-71.6
			c0-4-3.3-7.3-7.3-7.3s-7.3,3.3-7.3,7.3v92.8c0,4,3.3,7.3,7.3,7.3s7.3-3.3,7.3-7.3v-6.5h38.4v6.5c0,4,3.3,7.3,7.3,7.3
			s7.3-3.3,7.3-7.3v-92.8C274.9,317.6,271.6,314.4,267.5,314.4z"/>
		<path class="st3" d="M182.5,314.4h-53c-4,0-7.3,3.3-7.3,7.3s3.3,7.3,7.3,7.3h19.2v85.4c0,4,3.3,7.3,7.3,7.3s7.3-3.3,7.3-7.3V329
			h19.2c4,0,7.3-3.3,7.3-7.3S186.6,314.4,182.5,314.4z"/>
		<path class="st3" d="M212.3,264.4V232h19.2c4,0,7.3-3.3,7.3-7.3v-53c0-4-3.3-7.3-7.3-7.3s-7.3,3.3-7.3,7.3v45.7h-38.4v-45.7
			c0-4-3.3-7.3-7.3-7.3s-7.3,3.3-7.3,7.3v53c0,4,3.3,7.3,7.3,7.3h19.2v32.4c0,4,3.3,7.3,7.3,7.3C209,271.7,212.3,268.4,212.3,264.4z
			"/>
		<path class="st3" d="M264.1,271.7h53c4,0,7.3-3.3,7.3-7.3s-3.3-7.3-7.3-7.3h-45.7V179h45.7c4,0,7.3-3.3,7.3-7.3
			c0-4-3.3-7.3-7.3-7.3h-53c-4,0-7.3,3.3-7.3,7.3v92.8C256.8,268.4,260.1,271.7,264.1,271.7z"/>
		<path class="st3" d="M349.8,271.7h53c4,0,7.3-3.3,7.3-7.3v-92.8c0-4-3.3-7.3-7.3-7.3h-53c-4,0-7.3,3.3-7.3,7.3v92.8
			C342.4,268.4,345.7,271.7,349.8,271.7z M357.1,257.1V179h38.4v78.1H357.1z"/>
		<path class="st3" d="M488.4,164.3c-4,0-7.3,3.3-7.3,7.3v55.1l-39.6-59.2c0,0,0,0,0,0c-0.3-0.4-0.6-0.8-0.9-1.1
			c-0.2-0.2-0.3-0.3-0.5-0.4c-0.2-0.2-0.4-0.3-0.6-0.5c-0.2-0.1-0.4-0.2-0.6-0.3c-0.2-0.1-0.4-0.2-0.7-0.3c-0.2-0.1-0.4-0.1-0.7-0.2
			c-0.2-0.1-0.5-0.2-0.7-0.2c-0.5-0.1-0.9-0.1-1.4-0.1c0,0,0,0,0,0c-0.1,0-0.2,0-0.3,0c-0.4,0-0.8,0-1.1,0.1
			c-0.3,0.1-0.5,0.1-0.8,0.2c-0.2,0.1-0.4,0.1-0.6,0.2c-0.4,0.2-0.8,0.4-1.2,0.7c0,0,0,0,0,0c0,0,0,0,0,0c-0.4,0.3-0.8,0.6-1.1,0.9
			c-0.1,0.1-0.2,0.3-0.4,0.4c-0.2,0.2-0.4,0.4-0.5,0.7c-0.1,0.2-0.2,0.4-0.3,0.6c-0.1,0.2-0.3,0.5-0.4,0.7c-0.1,0.2-0.1,0.4-0.2,0.6
			c-0.1,0.2-0.2,0.5-0.2,0.7c-0.1,0.5-0.1,0.9-0.1,1.4c0,0,0,0,0,0v92.8c0,4,3.3,7.3,7.3,7.3s7.3-3.3,7.3-7.3v-68.7l36,53.7
			c0.6,1,1.5,1.7,2.4,2.2v12.7c0,4,3.3,7.3,7.3,7.3s7.3-3.3,7.3-7.3v-92.8C495.8,167.6,492.5,164.3,488.4,164.3z"/>
		<path class="st3" d="M145.9,232L145.9,232c4,0,7.3-3.3,7.3-7.3v-53c0,0,0,0,0,0c0-4-3.3-7.3-7.3-7.3h-53c-3.7,0-6.7,2.8-7.2,6.3
			H80l-8.7-6v1.4l7.8,5.3l-7.8,5.3v2.6l9-6.1h5.4c0.7,3.3,3.6,5.7,7.1,5.7h45.7v38.4h-38.4v-13.9c0-4-3.3-7.3-7.3-7.3
			c-4,0-7.3,3.3-7.3,7.3v60.9c0,4,3.3,7.3,7.3,7.3c4,0,7.3-3.3,7.3-7.3V232H145.9z M98.4,176.5h-5.9v-3.4h5.9V176.5z M98.4,170.6
			h-5.9v-3.4h5.9V170.6z"/>
	</g>
</g>
</svg>
