<svg width="64" height="32" viewBox="0 0 64 32" fill="none" xmlns="http://www.w3.org/2000/svg">
<rect width="64" height="32" fill="white"/>
<path d="M9.58665 14.8468C9.41181 13.3264 8.45397 12.5814 6.68274 12.5814C5.12436 12.5814 4.12852 13.2124 4.12852 14.1702C4.12852 14.976 4.73667 15.4549 6.22663 15.7742L8.11949 16.1619C9.50303 16.4584 10.1948 16.7397 10.7573 17.2186C11.3655 17.7279 11.7 18.4729 11.7 19.3319C11.7 21.4148 9.92113 22.6995 7.08564 22.6995C4.0601 22.6995 2.24326 21.2476 2 18.6021H3.73322C3.90806 20.3505 5.13196 21.3236 7.13885 21.3236C8.81886 21.3236 10.0048 20.5482 10.0048 19.4383C10.0048 18.6097 9.3738 18.07 8.1499 17.7887L5.53486 17.2034C3.40634 16.7245 2.44091 15.835 2.44091 14.3451C2.44091 12.4142 4.13612 11.1903 6.81197 11.1903C9.48783 11.1903 10.917 12.361 11.2819 14.8392H9.58665V14.8468Z" fill="#77B55A"/>
<path d="M15.5465 22.4563H13.8893V11.4412H15.5465V22.4563Z" fill="#77B55A"/>
<path d="M22.4794 22.4563H20.8222V12.8095H17.1885V11.4412H26.1131V12.8095H22.4794V22.4563V22.4563Z" fill="#77B55A"/>
<path d="M35.4254 14.8924C35.0757 13.4404 33.905 12.5662 32.301 12.5662C30.066 12.5662 28.5989 14.2843 28.5989 16.8765C28.5989 19.5371 30.066 21.3312 32.2478 21.3312C34.0646 21.3312 35.3265 20.1757 35.585 18.26H37.265C37.1282 19.3471 36.8621 20.0464 36.2692 20.8218C35.3113 22.0761 33.9658 22.7071 32.2174 22.7071C30.4842 22.7071 29.1082 22.0761 28.1276 20.8218C27.2914 19.75 26.8505 18.412 26.8505 16.9069C26.8505 13.5545 29.1006 11.1903 32.301 11.1903C34.7792 11.1903 36.5428 12.513 37.0522 14.7404L35.4254 14.8924Z" fill="#77B55A"/>
<path d="M59.8501 22.4563L55.0837 15.5082C54.506 14.6492 54.1563 14.1018 53.875 13.6077C53.9131 14.1018 53.9283 15.1433 53.9283 15.6906V22.4639H52.3547V11.4412H54.0499L58.6262 18.146C59.0595 18.777 59.6601 19.7652 60.0097 20.4266C59.9717 19.8184 59.9565 19.1419 59.9565 18.3589V11.5096H61.5301V22.4563H59.8501V22.4563Z" fill="#77B55A"/>
<path d="M46.6913 6.52278C47.6719 5.77019 48.8426 6.05146 48.8426 6.05146C48.8426 6.05146 48.645 7.44261 47.6643 8.19519C46.6837 8.94778 45.2773 8.76533 45.2773 8.76533C45.2773 8.76533 45.5814 8.30922 45.8855 7.70867C46.0679 7.35899 46.3264 6.79645 46.6913 6.52278Z" fill="#77B55A"/>
<path d="M44.3271 7.65545C43.871 7.30576 43.3236 7.43499 43.3236 7.43499C43.3236 7.43499 43.4149 8.08875 43.871 8.43844C44.3271 8.78813 44.9808 8.70451 44.9808 8.70451C44.9808 8.70451 44.8364 8.49165 44.6996 8.21038C44.616 8.04314 44.4943 7.78468 44.3271 7.65545Z" fill="#77B55A"/>
<path d="M44.4411 10.9775C44.578 10.9775 44.7072 10.9851 44.844 10.9927C44.7224 10.2781 44.7452 9.54071 45.1177 8.90215C44.4715 9.41907 44.1599 10.2097 44.0002 11.0003C44.1446 10.9851 44.2891 10.9775 44.4411 10.9775Z" fill="#77B55A"/>
<path d="M44.4411 11.2131C41.2179 11.2131 38.6029 13.8206 38.6029 17.0285C38.6029 20.2441 41.2179 22.844 44.4411 22.844C47.6643 22.844 50.2794 20.2365 50.2794 17.0285C50.2717 13.8206 47.6643 11.2131 44.4411 11.2131ZM46.8205 19.4079L44.4335 17.7735L42.0465 19.4079L43.6885 17.0285L42.0465 14.6492L44.4335 16.2836L46.8205 14.6492L45.1785 17.0285L46.8205 19.4079Z" fill="#77B55A"/>
</svg>
